<svg width="20" height="20" viewBox="0 0 20 20" fill="none" xmlns="http://www.w3.org/2000/svg">
<path d="M14.9998 3.7333C13.6737 2.40722 11.8751 1.66223 9.99978 1.66223C8.12441 1.66223 6.32586 2.40722 4.99978 3.7333C3.6737 5.05938 2.92871 6.85794 2.92871 8.7333C2.92871 10.6087 3.6737 12.4072 4.99978 13.7333L9.39145 18.1333C9.46891 18.2114 9.56108 18.2734 9.66263 18.3157C9.76418 18.358 9.8731 18.3798 9.98311 18.3798C10.0931 18.3798 10.202 18.358 10.3036 18.3157C10.4051 18.2734 10.4973 18.2114 10.5748 18.1333L14.9998 13.6916C16.3203 12.3711 17.0622 10.58 17.0622 8.71247C17.0622 6.84492 16.3203 5.05386 14.9998 3.7333ZM13.8081 12.5L9.99978 16.325L6.19145 12.5C5.43907 11.7469 4.92684 10.7877 4.71952 9.74354C4.51221 8.69941 4.6191 7.61725 5.0267 6.63387C5.4343 5.65048 6.12429 4.81001 7.00947 4.2187C7.89465 3.62739 8.93527 3.31178 9.99978 3.31178C11.0643 3.31178 12.1049 3.62739 12.9901 4.2187C13.8753 4.81001 14.5653 5.65048 14.9729 6.63387C15.3805 7.61725 15.4874 8.69941 15.28 9.74354C15.0727 10.7877 14.5605 11.7469 13.8081 12.5ZM7.49978 6.17497C6.82704 6.84978 6.44927 7.76377 6.44927 8.71663C6.44927 9.66949 6.82704 10.5835 7.49978 11.2583C7.99958 11.759 8.6361 12.1009 9.32949 12.2411C10.0229 12.3814 10.7422 12.3138 11.3973 12.0468C12.0524 11.7797 12.6141 11.3252 13.0118 10.7402C13.4096 10.1551 13.6257 9.46569 13.6331 8.7583C13.6369 8.28597 13.5459 7.81768 13.3655 7.38112C13.1852 6.94456 12.9191 6.5486 12.5831 6.21663C12.2528 5.87878 11.859 5.60958 11.4243 5.42452C10.9896 5.23946 10.5226 5.1422 10.0501 5.13832C9.57766 5.13445 9.10911 5.22405 8.67142 5.40196C8.23373 5.57986 7.83555 5.84257 7.49978 6.17497ZM11.4081 10.075C11.0923 10.3956 10.675 10.5966 10.2274 10.6435C9.77982 10.6905 9.32983 10.5805 8.95437 10.3324C8.5789 10.0843 8.30128 9.7135 8.16895 9.28337C8.03663 8.85324 8.05782 8.3905 8.22891 7.97426C8.4 7.55803 8.71036 7.21415 9.10693 7.00141C9.5035 6.78868 9.96166 6.72031 10.4031 6.80798C10.8445 6.89565 11.2417 7.13393 11.5269 7.48207C11.812 7.83022 11.9674 8.26661 11.9664 8.71663C11.9543 9.23102 11.7385 9.71957 11.3664 10.075H11.4081Z" fill="#DCDCE4"/>
</svg>
